<svg xmlns="http://www.w3.org/2000/svg" width="51.465" height="53.611" viewBox="0 0 51.465 53.611">
  <path id="XMLID_165_" d="M276.389,59.819a21.946,21.946,0,0,0-6.408-1.807c-1.972-.329-3.943-.329-6.079-.493h-1.972a42.428,42.428,0,0,0-.493-4.765c-.657-3.943-1.15-8.051-2.464-11.829-1.314-3.615-2.957-7.722-6.408-9.529-.164-.164-.329-.493-.657-.657-1.479-1.807-4.107-.493-4.765,1.314v.164c-2.629,2.464-3.286,6.243-3.943,9.694-.822,4.272-.822,8.708-1.15,13.144a3.2,3.2,0,0,1-.164,1.314c-.986-.164-1.972-.164-2.957-.329a36.207,36.207,0,0,0-5.915-.657c-2.3,0-3.943.821-6.079,1.314a1.221,1.221,0,0,0-.657,1.807c1.314,1.643,1.972,3.45,3.779,4.6a29.734,29.734,0,0,0,6.572,2.957,26.009,26.009,0,0,0,5.093,1.479,34.834,34.834,0,0,0,.986,7.065,16.583,16.583,0,0,0,1.15,2.464c.329.493.164.493-.164-.164a9.95,9.95,0,0,0,2.629,4.6c2.629,2.957,7.065,2.3,9.858,0a4.83,4.83,0,0,0,1.643-1.972,7.907,7.907,0,0,0,1.314-2.629c-.164.657-.164.657.164.164a6.781,6.781,0,0,0,1.15-2.464,49.383,49.383,0,0,0,1.15-5.257c.821,0,1.479-.164,2.3-.164a35.527,35.527,0,0,0,7.229-1.643c1.807-.657,4.436-1.972,5.586-3.615C277.868,62.612,277.868,60.64,276.389,59.819Z" transform="translate(-226.078 -29.874)" fill="#b8e3db" opacity="0.2"/>
</svg>
