<svg xmlns="http://www.w3.org/2000/svg" xmlns:xlink="http://www.w3.org/1999/xlink" width="550" height="500" viewBox="0 0 550 500">
  <defs>
    <linearGradient id="linear-gradient" x1="-7433.54" y1="6125.579" x2="1399.118" y2="8540.728" gradientUnits="objectBoundingBox">
      <stop offset="0" stop-color="#cecece"/>
      <stop offset="1" stop-color="#f8f8f8"/>
    </linearGradient>
    <linearGradient id="linear-gradient-3" x1="-7605.419" y1="6443.836" x2="3087.668" y2="9367.714" xlink:href="#linear-gradient"/>
    <linearGradient id="linear-gradient-4" x1="-8398.437" y1="10340.385" x2="4298.89" y2="13812.325" xlink:href="#linear-gradient"/>
    <linearGradient id="linear-gradient-5" x1="-6744.528" y1="7984.292" x2="2929.301" y2="10629.484" xlink:href="#linear-gradient"/>
    <linearGradient id="linear-gradient-8" x1="-9761.713" y1="10395.885" x2="2935.617" y2="13867.826" xlink:href="#linear-gradient"/>
    <linearGradient id="linear-gradient-9" x1="-7996.952" y1="7517.8" x2="5503.632" y2="11221.066" xlink:href="#linear-gradient"/>
    <linearGradient id="linear-gradient-10" x1="-9476.5" y1="7577" x2="4066.967" y2="11280.3" xlink:href="#linear-gradient"/>
    <linearGradient id="linear-gradient-14" x1="-10930.634" y1="7636.233" x2="2612.807" y2="11339.533" xlink:href="#linear-gradient"/>
    <linearGradient id="linear-gradient-15" x1="-8073.715" y1="5965.364" x2="1600.136" y2="8610.57" xlink:href="#linear-gradient"/>
    <clipPath id="clip-_22">
      <rect width="550" height="500"/>
    </clipPath>
  </defs>
  <g id="_22" data-name="22" clip-path="url(#clip-_22)">
    <path id="XMLID_230_" d="M386,241.4a2.326,2.326,0,0,0,2.3-2.3,2.263,2.263,0,0,0-2.3-2.3,2.3,2.3,0,0,0,0,4.6Z" transform="translate(47.301 -16.9)" fill="url(#linear-gradient)"/>
    <path id="XMLID_230_2" data-name="XMLID_230_" d="M386,241.4a2.326,2.326,0,0,0,2.3-2.3,2.263,2.263,0,0,0-2.3-2.3,2.3,2.3,0,0,0,0,4.6Z" transform="translate(109.301 53.5)" fill="url(#linear-gradient)"/>
    <path id="XMLID_228_" d="M386,196.1a2.1,2.1,0,1,0-2.1-2.1A2.112,2.112,0,0,0,386,196.1Z" transform="translate(27.301 -6.9)" fill="#936037"/>
    <path id="XMLID_211_" d="M490.7,237.1a2.326,2.326,0,0,0,2.3-2.3,2.263,2.263,0,0,0-2.3-2.3,2.326,2.326,0,0,0-2.3,2.3A2.263,2.263,0,0,0,490.7,237.1Z" transform="translate(33.301 -6.9)" fill="#936037"/>
    <path id="XMLID_211_2" data-name="XMLID_211_" d="M490.7,237.1a2.326,2.326,0,0,0,2.3-2.3,2.263,2.263,0,0,0-2.3-2.3,2.326,2.326,0,0,0-2.3,2.3A2.263,2.263,0,0,0,490.7,237.1Z" transform="translate(-2.9 -0.8)" fill="#936037"/>
    <path id="XMLID_209_" d="M490.7,191.8a2.1,2.1,0,1,0-2.1-2.1A1.994,1.994,0,0,0,490.7,191.8Z" transform="translate(20.301 -16.9)" fill="#936037"/>
    <path id="XMLID_268_" d="M124.7,140.5a2.3,2.3,0,1,0-2.3-2.3A2.326,2.326,0,0,0,124.7,140.5Z" transform="translate(80 15.1)" fill="#936037"/>
    <path id="XMLID_253_" d="M281.3,331.9a1.9,1.9,0,1,0,1.9,1.9A1.9,1.9,0,0,0,281.3,331.9Z" transform="translate(43.799 -101.7)" fill="url(#linear-gradient-3)"/>
    <path id="XMLID_247_" d="M62.3,161.4a2.1,2.1,0,1,0-2.1-2.1A2.182,2.182,0,0,0,62.3,161.4Z" transform="translate(80 15.1)" fill="#936037"/>
    <path id="XMLID_247_2" data-name="XMLID_247_" d="M63.3,163.4a3.1,3.1,0,1,0-3.1-3.1A3.22,3.22,0,0,0,63.3,163.4Z" transform="translate(262.799 -1.6)" fill="#936037"/>
    <path id="XMLID_247_3" data-name="XMLID_247_" d="M62.3,161.4a2.1,2.1,0,1,0-2.1-2.1A2.182,2.182,0,0,0,62.3,161.4Z" transform="translate(28 -69.9)" fill="#936037"/>
    <path id="XMLID_264_" d="M176.6,159.3a2,2,0,1,0-2-2A2.006,2.006,0,0,0,176.6,159.3Z" transform="translate(164 -52.9)" fill="#936037"/>
    <path id="XMLID_264_2" data-name="XMLID_264_" d="M178.1,162.3a3.5,3.5,0,1,0-3.5-3.5A3.51,3.51,0,0,0,178.1,162.3Z" transform="translate(100.4 -29.9)" fill="#936037"/>
    <path id="XMLID_264_3" data-name="XMLID_264_" d="M178.1,162.3a3.5,3.5,0,1,0-3.5-3.5A3.51,3.51,0,0,0,178.1,162.3Z" transform="translate(37.4 64.6)" fill="#936037"/>
    <path id="XMLID_247_4" data-name="XMLID_247_" d="M62.3,161.4a2.1,2.1,0,1,0-2.1-2.1A2.182,2.182,0,0,0,62.3,161.4Z" transform="translate(144 -62.9)" fill="#936037"/>
    <path id="XMLID_245_" d="M281.8,156a2.5,2.5,0,1,0-2.5-2.5A2.507,2.507,0,0,0,281.8,156Z" transform="translate(138 -62.9)" fill="#936037"/>
    <path id="XMLID_245_2" data-name="XMLID_245_" d="M281.8,156a2.5,2.5,0,1,0-2.5-2.5A2.507,2.507,0,0,0,281.8,156Z" transform="translate(224.594 -113.4)" fill="#936037"/>
    <path id="XMLID_245_3" data-name="XMLID_245_" d="M281.8,156a2.5,2.5,0,1,0-2.5-2.5A2.507,2.507,0,0,0,281.8,156Z" transform="translate(179 -73.4)" fill="#936037"/>
    <path id="XMLID_245_4" data-name="XMLID_245_" d="M281.8,156a2.5,2.5,0,1,0-2.5-2.5A2.507,2.507,0,0,0,281.8,156Z" transform="translate(134.5 -30.6)" fill="#936037"/>
    <path id="XMLID_268_2" data-name="XMLID_268_" d="M124.7,140.5a2.3,2.3,0,1,0-2.3-2.3A2.326,2.326,0,0,0,124.7,140.5Z" transform="translate(144 -62.9)" fill="#936037"/>
    <path id="XMLID_262_" d="M177.1,114.7a2.1,2.1,0,1,0-2.1-2.1A2.073,2.073,0,0,0,177.1,114.7Z" transform="translate(144 -62.9)" fill="url(#linear-gradient-4)"/>
    <path id="XMLID_266_" d="M235,111.7a3.1,3.1,0,1,0-3.1-3.1A3.118,3.118,0,0,0,235,111.7Z" transform="translate(144 -62.9)" fill="url(#linear-gradient-5)"/>
    <path id="XMLID_266_2" data-name="XMLID_266_" d="M235,111.7a3.1,3.1,0,1,0-3.1-3.1A3.118,3.118,0,0,0,235,111.7Z" transform="translate(20.01 -74.1)" fill="url(#linear-gradient-5)"/>
    <path id="XMLID_266_3" data-name="XMLID_266_" d="M235,111.7a3.1,3.1,0,1,0-3.1-3.1A3.118,3.118,0,0,0,235,111.7Z" transform="translate(275.002 5.9)" fill="url(#linear-gradient-5)"/>
    <path id="XMLID_243_" d="M281.3,109.4a1.6,1.6,0,1,0-1.6-1.6A1.58,1.58,0,0,0,281.3,109.4Z" transform="translate(149 -62.9)" fill="url(#linear-gradient-8)"/>
    <path id="XMLID_274_" d="M177.1,381.8a2,2,0,1,0,2,2A1.823,1.823,0,0,0,177.1,381.8Z" transform="translate(-138 -32)" fill="url(#linear-gradient-9)"/>
    <path id="XMLID_272_" d="M338.3,427.6a1.9,1.9,0,1,0,1.9,1.9A1.9,1.9,0,0,0,338.3,427.6Z" transform="translate(-154 -31.9)" fill="#936037"/>
    <path id="XMLID_272_2" data-name="XMLID_272_" d="M338.3,427.6a1.9,1.9,0,1,0,1.9,1.9A1.9,1.9,0,0,0,338.3,427.6Z" transform="translate(-204.49 38)" fill="#936037"/>
    <path id="XMLID_272_3" data-name="XMLID_272_" d="M338.3,427.6a1.9,1.9,0,1,0,1.9,1.9A1.9,1.9,0,0,0,338.3,427.6Z" transform="translate(-257 -56.9)" fill="#936037"/>
    <path id="XMLID_272_4" data-name="XMLID_272_" d="M338.3,427.6a1.9,1.9,0,1,0,1.9,1.9A1.9,1.9,0,0,0,338.3,427.6Z" transform="translate(-295 -130.6)" fill="#936037"/>
    <path id="XMLID_272_5" data-name="XMLID_272_" d="M338.3,427.6a1.9,1.9,0,1,0,1.9,1.9A1.9,1.9,0,0,0,338.3,427.6Z" transform="translate(-172 -193.8)" fill="#936037"/>
    <path id="XMLID_255_" d="M281.8,377.5a2,2,0,1,0,2,2A1.964,1.964,0,0,0,281.8,377.5Z" transform="translate(-174 -42.9)" fill="url(#linear-gradient-10)"/>
    <path id="XMLID_253_2" data-name="XMLID_253_" d="M281.8,331.9a2.4,2.4,0,1,0,2.4,2.4A2.4,2.4,0,0,0,281.8,331.9Z" transform="translate(-124 -34.9)" fill="url(#linear-gradient-3)"/>
    <path id="XMLID_253_3" data-name="XMLID_253_" d="M281.8,331.9a2.4,2.4,0,1,0,2.4,2.4A2.4,2.4,0,0,0,281.8,331.9Z" transform="translate(-169.6 -86.7)" fill="url(#linear-gradient-3)"/>
    <path id="XMLID_253_4" data-name="XMLID_253_" d="M281.8,331.9a2.4,2.4,0,1,0,2.4,2.4A2.4,2.4,0,0,0,281.8,331.9Z" transform="translate(-223.6 -142.299)" fill="url(#linear-gradient-3)"/>
    <path id="XMLID_236_" d="M386,373.2a1.5,1.5,0,1,0,1.5,1.5A1.538,1.538,0,0,0,386,373.2Z" transform="translate(-172 -21.9)" fill="url(#linear-gradient-14)"/>
    <path id="XMLID_234_" d="M419.4,358.6a2.4,2.4,0,1,0,2.4,2.4A2.482,2.482,0,0,0,419.4,358.6Z" transform="translate(-154 -31.9)" fill="#936037"/>
    <path id="XMLID_232_" d="M390.9,315a2.6,2.6,0,1,0,2.6,2.6A2.615,2.615,0,0,0,390.9,315Z" transform="translate(-156 -29.9)" fill="url(#linear-gradient-15)"/>
    <path id="XMLID_232_2" data-name="XMLID_232_" d="M390.9,315a2.6,2.6,0,1,0,2.6,2.6A2.615,2.615,0,0,0,390.9,315Z" transform="translate(-111.301 -65)" fill="url(#linear-gradient-15)"/>
    <path id="XMLID_232_3" data-name="XMLID_232_" d="M390.9,315a2.6,2.6,0,1,0,2.6,2.6A2.615,2.615,0,0,0,390.9,315Z" transform="translate(-118.5 -125.799)" fill="url(#linear-gradient-15)"/>
    <path id="XMLID_217_" d="M490.7,369a1.5,1.5,0,1,0,1.5,1.5A1.538,1.538,0,0,0,490.7,369Z" transform="translate(-163.701 -45.299)" fill="#936037"/>
    <path id="XMLID_274_2" data-name="XMLID_274_" d="M177.1,381.8a2,2,0,1,0,2,2A1.823,1.823,0,0,0,177.1,381.8Z" transform="translate(-158 -324)" fill="url(#linear-gradient-9)"/>
    <path id="XMLID_255_2" data-name="XMLID_255_" d="M281.8,377.5a2,2,0,1,0,2,2A1.964,1.964,0,0,0,281.8,377.5Z" transform="translate(-194 -334.9)" fill="url(#linear-gradient-10)"/>
    <path id="XMLID_255_3" data-name="XMLID_255_" d="M281.8,377.5a2,2,0,1,0,2,2A1.964,1.964,0,0,0,281.8,377.5Z" transform="translate(-143.602 -259.9)" fill="url(#linear-gradient-10)"/>
    <path id="XMLID_236_2" data-name="XMLID_236_" d="M386,373.2a1.5,1.5,0,1,0,1.5,1.5A1.538,1.538,0,0,0,386,373.2Z" transform="translate(-192 -313.9)" fill="url(#linear-gradient-14)"/>
    <path id="XMLID_236_3" data-name="XMLID_236_" d="M386,373.2a1.5,1.5,0,1,0,1.5,1.5A1.538,1.538,0,0,0,386,373.2Z" transform="translate(-343 -236.9)" fill="url(#linear-gradient-14)"/>
    <path id="XMLID_247_5" data-name="XMLID_247_" d="M62.3,161.4a2.1,2.1,0,1,0-2.1-2.1A2.182,2.182,0,0,0,62.3,161.4Z" transform="translate(350 127.899)" fill="#936037"/>
    <path id="XMLID_274_3" data-name="XMLID_274_" d="M177.1,381.8a2,2,0,1,0,2,2A1.823,1.823,0,0,0,177.1,381.8Z" transform="translate(132 80.8)" fill="url(#linear-gradient-9)"/>
    <path id="XMLID_274_4" data-name="XMLID_274_" d="M177.1,381.8a2,2,0,1,0,2,2A1.823,1.823,0,0,0,177.1,381.8Z" transform="translate(47 71.6)" fill="url(#linear-gradient-9)"/>
    <path id="XMLID_274_5" data-name="XMLID_274_" d="M177.1,381.8a2,2,0,1,0,2,2A1.823,1.823,0,0,0,177.1,381.8Z" transform="translate(79 17.3)" fill="url(#linear-gradient-9)"/>
    <path id="XMLID_272_6" data-name="XMLID_272_" d="M338.3,427.6a1.9,1.9,0,1,0,1.9,1.9A1.9,1.9,0,0,0,338.3,427.6Z" transform="translate(13 55.899)" fill="#936037"/>
    <path id="XMLID_272_7" data-name="XMLID_272_" d="M338.3,427.6a1.9,1.9,0,1,0,1.9,1.9A1.9,1.9,0,0,0,338.3,427.6Z" transform="translate(-25 -17.8)" fill="#936037"/>
    <path id="XMLID_272_8" data-name="XMLID_272_" d="M338.3,427.6a1.9,1.9,0,1,0,1.9,1.9A1.9,1.9,0,0,0,338.3,427.6Z" transform="translate(98 -81)" fill="#936037"/>
    <path id="XMLID_255_4" data-name="XMLID_255_" d="M281.8,377.5a2,2,0,1,0,2,2A1.964,1.964,0,0,0,281.8,377.5Z" transform="translate(129.5 77.899)" fill="url(#linear-gradient-10)"/>
    <path id="XMLID_253_5" data-name="XMLID_253_" d="M281.8,331.9a2.4,2.4,0,1,0,2.4,2.4A2.4,2.4,0,0,0,281.8,331.9Z" transform="translate(146 77.899)" fill="url(#linear-gradient-3)"/>
    <path id="XMLID_253_6" data-name="XMLID_253_" d="M281.8,331.9a2.4,2.4,0,1,0,2.4,2.4A2.4,2.4,0,0,0,281.8,331.9Z" transform="translate(100.4 52.1)" fill="url(#linear-gradient-3)"/>
    <path id="XMLID_236_4" data-name="XMLID_236_" d="M386,373.2a1.5,1.5,0,1,0,1.5,1.5A1.538,1.538,0,0,0,386,373.2Z" transform="translate(98 90.899)" fill="url(#linear-gradient-14)"/>
    <path id="XMLID_234_2" data-name="XMLID_234_" d="M419.4,358.6a2.4,2.4,0,1,0,2.4,2.4A2.482,2.482,0,0,0,419.4,358.6Z" transform="translate(116 80.899)" fill="#936037"/>
    <path id="XMLID_232_4" data-name="XMLID_232_" d="M390.9,315a2.6,2.6,0,1,0,2.6,2.6A2.615,2.615,0,0,0,390.9,315Z" transform="translate(114 82.899)" fill="url(#linear-gradient-15)"/>
  </g>
</svg>
