<svg id="XMLID_2753_" xmlns="http://www.w3.org/2000/svg" width="167.627" height="123.156" viewBox="0 0 167.627 123.156">
  <g id="XMLID_3920_" transform="translate(14.623 5.601)">
    <g id="XMLID_3921_">
      <path id="XMLID_3922_" d="M283.077,311.294a100.208,100.208,0,0,0,23.166-2.629c1.807-.493,3.779-.986,5.586-1.643l5.422-1.972c1.807-.821,3.45-1.643,5.258-2.464l4.929-2.957c.329-.329.821-.493,1.15-.821l.493-.493.493-.493.986-.986.986-.986.164-.329.164-.329.493-.493.493-.493.493-.493c.329-.329.493-.822.821-1.15l.822-1.15a29.117,29.117,0,0,0,2.464-5.093c.164-.493.329-.821.493-1.314s.329-.822.493-1.314a17.187,17.187,0,0,0,.657-2.793,53.353,53.353,0,0,0,1.314-11.336,67.727,67.727,0,0,0-.821-11.5,93.227,93.227,0,0,0-2.464-11.336,60.361,60.361,0,0,0-4.272-10.679c-1.807-3.45-3.615-6.9-5.586-10.186a48.906,48.906,0,0,0-3.286-4.765c-1.15-1.479-2.464-2.957-3.779-4.436l-.986-.986-.986-.986c-.657-.657-1.479-1.314-2.136-1.972a47.968,47.968,0,0,0-4.6-3.45,54.832,54.832,0,0,0-10.186-5.422,69.935,69.935,0,0,0-22.509-4.929l-1.479-.164h-1.479c-.986,0-1.972-.164-2.957-.164h-4.272a4.547,4.547,0,0,0-1.479.164c-1.972.164-3.779.493-5.75.821-1.807.329-3.779.821-5.586,1.314a11.319,11.319,0,0,0-1.314.493l-1.314.493-.657.164-.657.329-1.314.493c-1.807.822-3.45,1.643-5.258,2.464-1.643.821-3.286,1.972-4.929,2.957a27.871,27.871,0,0,0-2.3,1.643l-1.15.821-1.15.822a69.865,69.865,0,0,0-15.28,17.251A76.341,76.341,0,0,0,214.894,239c-.821,1.807-1.479,3.615-2.3,5.422-.657,1.807-1.314,3.615-1.807,5.422s-.986,3.779-1.314,5.586c-.164.986-.329,1.972-.493,2.793a18.294,18.294,0,0,0-.329,2.793c-.164.986-.164,1.972-.329,2.793,0,.986-.164,1.972-.164,2.793,0,1.972,0,3.779.164,5.75a30.518,30.518,0,0,0,.986,5.586,28.359,28.359,0,0,0,1.807,5.258,27.806,27.806,0,0,0,2.793,4.765c.329.329.493.822.822,1.15l.986.986.986.986.986.986a7.146,7.146,0,0,0,1.15.986l1.15.986c.822.657,1.479,1.15,2.3,1.807a47.585,47.585,0,0,0,4.765,3.122,49.5,49.5,0,0,0,5.093,2.629c1.807.821,3.45,1.479,5.258,2.136s3.615,1.15,5.586,1.807a17.187,17.187,0,0,0,2.793.657c.986.164,1.807.493,2.793.657,1.972.329,3.779.822,5.75,1.15s3.779.657,5.915.986c.329.164.657.493.493.822,0,.329-.329.493-.657.493h0c-1.972-.164-3.943-.164-5.915-.329s-3.943-.329-5.915-.657a71.39,71.39,0,0,1-11.665-2.957c-1.807-.657-3.779-1.479-5.586-2.3a53.216,53.216,0,0,1-5.258-2.793,53.96,53.96,0,0,1-5.093-3.286c-.822-.657-1.643-1.15-2.464-1.807l-1.15-.986c-.329-.329-.821-.657-1.15-.986l-1.15-.986-1.15-1.15c-.329-.329-.657-.821-.986-1.15s-.657-.822-.986-1.15a29.154,29.154,0,0,1-3.122-5.422,33.9,33.9,0,0,1-1.972-5.75,37.037,37.037,0,0,1-.986-5.915c-.164-1.972-.329-4.107-.329-6.079a17.856,17.856,0,0,1,.164-2.957c.164-.986.164-1.972.329-2.957a18.1,18.1,0,0,0,.329-2.957l.493-2.957a32.782,32.782,0,0,1,1.479-5.75c.493-1.972,1.15-3.779,1.807-5.75.657-1.807,1.479-3.779,2.3-5.586a93.726,93.726,0,0,1,5.75-10.515,75.162,75.162,0,0,1,15.937-17.908l1.15-.986,1.15-.821c.822-.657,1.643-1.15,2.464-1.807,1.643-1.15,3.45-2.136,5.093-3.122,1.807-.986,3.615-1.807,5.422-2.629l1.479-.493.657-.329.657-.329,1.479-.493,1.479-.493c1.972-.657,3.943-.986,5.915-1.479,1.972-.329,3.943-.657,5.915-.822.493,0,.986-.164,1.479-.164h4.436a17.856,17.856,0,0,1,2.957.164H277l1.479.164a76.113,76.113,0,0,1,23.33,5.093,55.946,55.946,0,0,1,10.679,5.75,51.832,51.832,0,0,1,4.765,3.615c.822.657,1.479,1.314,2.3,1.972l1.15.986.986,1.15c1.314,1.479,2.629,2.957,3.943,4.6l3.45,4.929c2.136,3.45,3.943,6.9,5.75,10.351a71.862,71.862,0,0,1,4.436,11.172,92.288,92.288,0,0,1,2.629,11.665,95.875,95.875,0,0,1,.821,11.994,59.857,59.857,0,0,1-1.479,11.994,19.863,19.863,0,0,1-.822,2.957l-.493,1.479-.493,1.479a27.635,27.635,0,0,1-2.629,5.422l-.821,1.314c-.329.493-.657.821-.986,1.314-.164.164-.329.493-.493.657l-.493.657-.493.657-.329.329-.329.329-1.15,1.15c-.329.329-.822.657-1.15.986a2.268,2.268,0,0,1-.657.493l-.657.493c-.329.329-.822.657-1.15.986A53.954,53.954,0,0,1,323,304.886c-1.807.986-3.615,1.807-5.422,2.629a37.8,37.8,0,0,1-5.586,1.972c-1.972.657-3.779.986-5.75,1.479a37.041,37.041,0,0,1-5.915.986c-1.972.329-3.943.493-5.915.657a71.1,71.1,0,0,1-11.829,0,.707.707,0,0,1-.657-.657C282.42,311.458,282.748,311.294,283.077,311.294Z" transform="translate(-205.2 -195.3)" fill="#d5d5d5"/>
    </g>
  </g>
  <g id="XMLID_3917_" transform="translate(21.687 1.468)">
    <g id="XMLID_3918_">
      <path id="XMLID_3919_" d="M332.558,278.409c-3.286,22.344-25.466,27.93-42.224,30.559a110.406,110.406,0,0,1-20.866,1.15h0a112.267,112.267,0,0,1-20.7-2.957c-9.2-2.3-20.044-5.75-27.93-12.322a33.2,33.2,0,0,1-7.065-8.051,25.068,25.068,0,0,1-3.122-7.393,31.728,31.728,0,0,1-.986-5.915c0-.821-.164-1.643-.164-2.464a43.249,43.249,0,0,1,.657-7.722c.329-2.464,2.629-10.515,5.586-18.566.986-2.629,1.972-5.422,3.122-7.886-2.793-15.937-3.286-35.981,2.3-42.553,3.615-4.272,12.979.657,26.616,13.472,10.351-3.943,24.48-3.615,26.616-3.45s16.1.986,26.123,6.079c14.951-11.5,24.48-15.608,27.766-11.008,5.093,7.065,2.629,26.945-1.643,42.717,3.45,9.858,5.915,23.823,6.079,26.945A35.169,35.169,0,0,1,332.558,278.409Z" transform="translate(-209.5 -192.784)" fill="#8e8fb3"/>
    </g>
  </g>
  <g id="XMLID_3914_" transform="translate(29.081 1.304)">
    <g id="XMLID_3915_">
      <path id="XMLID_3916_" d="M328.186,218.176c.164-6.408-.657-11.665-2.793-14.787-3.286-4.6-12.979-.657-27.766,11.008-10.022-4.929-23.987-5.915-26.123-6.079s-16.1-.493-26.616,3.45c-13.8-12.979-23-17.908-26.616-13.472-2.464,2.793-3.779,8.051-4.272,14.294.164-8.051,1.479-14.951,4.436-18.4,3.615-4.272,12.979.657,26.616,13.472,10.351-3.943,24.48-3.615,26.616-3.45s16.1.986,26.123,6.079c14.951-11.5,24.48-15.608,27.766-11.008C328.186,203.061,328.679,210.126,328.186,218.176Z" transform="translate(-214 -192.684)" fill="#fff"/>
    </g>
  </g>
  <g id="XMLID_3911_" transform="translate(21.852 73.785)">
    <g id="XMLID_3912_">
      <path id="XMLID_3913_" d="M332.494,250.108c-3.286,22.344-25.466,27.93-42.224,30.559a110.406,110.406,0,0,1-20.866,1.15h0a112.267,112.267,0,0,1-20.7-2.957c-9.2-2.3-20.044-5.75-27.93-12.322a33.2,33.2,0,0,1-7.065-8.051,25.068,25.068,0,0,1-3.122-7.393,31.728,31.728,0,0,1-.986-5.915c23.166,21.852,41.074,13.472,49.618-2.136,3.286-5.915,9.2-6.243,11.829-6.243a11.9,11.9,0,0,1,11.172,7.229C289.448,260.623,306.864,270.809,332.494,250.108Z" transform="translate(-209.6 -236.8)" fill="#6e895c"/>
    </g>
  </g>
  <g id="XMLID_3908_" transform="translate(23.987 91.693)">
    <g id="XMLID_3909_">
      <path id="XMLID_3910_" d="M328.537,253.122c-7.558,14.13-25.137,18.4-39.1,20.537a110.4,110.4,0,0,1-20.866,1.15h0a112.269,112.269,0,0,1-20.7-2.957c-9.2-2.3-20.044-5.75-27.93-12.322a33.2,33.2,0,0,1-7.065-8.051c-.657-1.15-1.314-2.464-1.972-3.779a28.793,28.793,0,0,0,3.943,3.779c8.708,7.229,39.76,14.622,54.054,15.28C283.355,267.251,318.843,261.829,328.537,253.122Z" transform="translate(-210.9 -247.7)" fill="#5d5d5d"/>
    </g>
  </g>
  <g id="XMLID_3905_" transform="translate(49.07 35.76)">
    <g id="XMLID_3906_">
      <path id="XMLID_3907_" d="M226.222,221.943c-.657-1.15,4.6-11.008,13.472-7.558,3.286,1.15,3.286,4.436.821,4.929s-3.45,0-7.229,1.15C231.151,220.957,226.879,223.093,226.222,221.943Z" transform="translate(-226.166 -213.656)" fill="#575756"/>
    </g>
  </g>
  <g id="XMLID_3902_" transform="translate(105.569 38.199)">
    <g id="XMLID_3903_">
      <path id="XMLID_3904_" d="M276.237,224.439c.822-1.15-3.615-11.5-12.815-8.872-3.286.986-3.779,4.107-1.314,4.929,2.3.821,3.45.329,7.229,1.807C271.472,222.96,275.416,225.424,276.237,224.439Z" transform="translate(-260.555 -215.141)" fill="#575756"/>
    </g>
  </g>
  <g id="XMLID_3899_" transform="translate(35.259 9.327)">
    <path id="XMLID_3901_" d="M227.355,216.022c-4.6,4.436-7.722,10.844-8.051,10.186a.509.509,0,0,0-.164-.329c-.657-2.136-1.643-10.844-1.314-18.4a20.225,20.225,0,0,1,.329-3.286c.329-2.629.657-4.272,1.314-5.257a2.148,2.148,0,0,1,2.957-1.15c2.957,1.314,11.008,7.229,13.472,10.844C236.227,209.45,231.955,211.586,227.355,216.022Z" transform="translate(-217.76 -197.568)" fill="#634e42"/>
  </g>
  <g id="XMLID_3896_" transform="translate(35.488 9.327)">
    <g id="XMLID_3897_">
      <path id="XMLID_3898_" d="M227.265,216.022c-4.6,4.436-7.722,10.844-8.051,10.186a.509.509,0,0,0-.164-.329c1.15-3.943,4.107-9.365,6.408-13.144,3.122-5.258-.657-9.858-3.943-11.336-1.15-.493-2.629,1.314-3.615,2.793.329-2.629.657-4.272,1.314-5.257a2.148,2.148,0,0,1,2.957-1.15c2.957,1.314,11.008,7.229,13.472,10.844C236.137,209.45,231.865,211.586,227.265,216.022Z" transform="translate(-217.9 -197.568)" fill="#d5d5d5"/>
    </g>
  </g>
  <g id="XMLID_3891_" transform="translate(33.727 8.049)">
    <g id="XMLID_3892_">
      <path id="XMLID_3893_" d="M219.575,228.352a1.737,1.737,0,0,1-1.15-.986c-.821-1.972-1.972-11.5-1.479-19.387h0a25.159,25.159,0,0,1,1.643-9.036,3.657,3.657,0,0,1,4.929-1.807c3.122,1.314,11.336,7.393,14.13,11.336.329.329.821,1.479-.657,2.793-.493.329-.986.821-1.807,1.479a44.976,44.976,0,0,0-6.243,5.093,45.845,45.845,0,0,0-6.079,7.722c-1.479,2.3-1.972,2.957-3.122,2.957C219.739,228.352,219.739,228.352,219.575,228.352Zm.329-20.209a82.8,82.8,0,0,0,.657,15.115,56.332,56.332,0,0,1,6.243-7.886,45.326,45.326,0,0,1,6.572-5.258,4.993,4.993,0,0,1,1.15-.821c-2.957-3.45-9.858-8.379-12.158-9.529-.329-.164-.657-.164-.986.329-.657,1.15-1.15,3.286-1.479,8.051Z" transform="translate(-216.828 -196.789)" fill="#d5d5d5"/>
    </g>
  </g>
  <g id="XMLID_3888_" transform="translate(119.374 13.957)">
    <g id="XMLID_3889_">
      <path id="XMLID_3890_" d="M276.749,218.153c4.107,4.929,6.572,11.665,7.065,10.844a.574.574,0,0,0,.164-.329c.986-2.136,2.793-10.515,3.122-18.237v-3.286a12.291,12.291,0,0,0-.821-5.258,2.06,2.06,0,0,0-2.793-1.314c-2.957.986-11.665,6.079-14.458,9.529C268.37,210.76,272.477,213.224,276.749,218.153Z" transform="translate(-268.958 -200.386)" fill="#d5d5d5"/>
    </g>
  </g>
  <g id="XMLID_3885_" transform="translate(119.374 13.957)">
    <path id="XMLID_3887_" d="M276.749,218.153c4.107,4.929,6.572,11.665,7.065,10.844a.574.574,0,0,0,.164-.329c-.822-4.107-3.286-9.694-5.093-13.8-2.629-5.586,1.479-9.693,4.929-10.844,1.15-.329,2.464,1.643,3.286,3.122a12.291,12.291,0,0,0-.821-5.258,2.06,2.06,0,0,0-2.793-1.314c-2.957.986-11.665,6.079-14.458,9.529C268.37,210.76,272.477,213.224,276.749,218.153Z" transform="translate(-268.958 -200.386)" fill="#634e42"/>
  </g>
  <g id="XMLID_3880_" transform="translate(117.76 12.463)">
    <g id="XMLID_3881_">
      <path id="XMLID_3882_" d="M283.953,231.06c-.821-.164-1.314-.986-2.464-3.122a44.953,44.953,0,0,0-5.258-8.215,44.065,44.065,0,0,0-5.75-5.586,15.318,15.318,0,0,1-1.643-1.643c-1.314-1.479-.821-2.464-.493-2.793,3.122-3.779,11.994-8.872,15.115-10.022a3.791,3.791,0,0,1,4.765,2.3c.657,1.972.986,4.929.822,9.2h0c-.329,7.886-2.3,17.251-3.45,19.058a1.725,1.725,0,0,1-1.479.821C284.281,231.224,284.117,231.224,283.953,231.06Zm-12.487-20.209.986.986a49.493,49.493,0,0,1,5.915,5.915,39.6,39.6,0,0,1,5.422,8.379,81.173,81.173,0,0,0,2.136-15.115c.164-4.765-.164-6.9-.657-8.051-.164-.657-.657-.493-.986-.493C282.146,203.458,274.752,207.73,271.466,210.852Z" transform="translate(-267.975 -199.477)" fill="#d5d5d5"/>
    </g>
  </g>
  <g id="XMLID_3875_" transform="translate(20.537)">
    <g id="XMLID_3876_">
      <path id="XMLID_3877_" d="M254.967,310.2c-1.972-.329-3.943-.821-5.915-1.314-8.872-2.3-20.209-5.75-28.423-12.651a35.671,35.671,0,0,1-7.393-8.379,29.569,29.569,0,0,1-3.286-7.722,35.751,35.751,0,0,1-1.15-8.543,46.85,46.85,0,0,1,.657-8.051,162.58,162.58,0,0,1,5.586-18.73c.986-2.793,1.972-5.257,2.957-7.558-2.957-16.758-3.122-36.474,2.793-43.374a5.484,5.484,0,0,1,4.107-1.972c5.093-.329,12.815,4.6,23.823,14.787,11.172-3.943,25.795-3.286,26.288-3.286.657,0,15.115.657,25.959,5.75,11.829-9.2,20.044-13.308,25.137-12.487a6.1,6.1,0,0,1,3.943,2.3c5.258,7.393,3.122,27.109-1.314,43.374a166.7,166.7,0,0,1,6.079,26.945c.986,13.8-3.779,24.316-13.8,31.216-8.872,6.243-20.537,8.543-29.573,10.022a103.562,103.562,0,0,1-21.359,1.15h0A76.075,76.075,0,0,1,254.967,310.2ZM226.544,194.863a5.659,5.659,0,0,0-1.479-.164,2.983,2.983,0,0,0-2.3.986c-5.258,6.243-4.765,25.795-1.972,41.567v.329l-.164.493c-.986,2.3-1.972,4.765-3.122,7.722a143.1,143.1,0,0,0-5.422,18.237,40.306,40.306,0,0,0-.657,7.558,30.5,30.5,0,0,0,.986,7.886,28.029,28.029,0,0,0,9.694,14.787c7.886,6.572,18.894,9.858,27.438,11.994a105.047,105.047,0,0,0,20.373,2.957h0a98.269,98.269,0,0,0,20.866-1.15c20.208-3.122,43.046-10.351,41.074-38.445-.164-3.286-2.793-17.087-6.079-26.616l-.164-.329.164-.329c4.272-15.28,6.572-34.831,1.807-41.567a3.212,3.212,0,0,0-2.136-1.314c-2.957-.493-9.365,1.314-23.659,12.487l-.657.493-.822-.329c-10.351-5.093-24.973-5.75-25.63-5.915-.657,0-15.28-.657-25.959,3.45l-.821.329-.657-.657C236.238,198.806,229.994,195.521,226.544,194.863Z" transform="translate(-208.8 -191.891)" fill="#d5d5d5"/>
    </g>
  </g>
  <g id="XMLID_3872_" transform="translate(72.123 76.742)">
    <g id="XMLID_3873_">
      <path id="XMLID_3874_" d="M262.053,247.472s-.329,6.572-6.079,5.915a5.73,5.73,0,0,1-4.929-4.107,5.115,5.115,0,0,1-5.258,3.615c-5.915,0-5.586-6.408-5.586-6.408l11.172-7.886h.164Z" transform="translate(-240.198 -238.6)" fill="#e8e8e8"/>
    </g>
  </g>
  <g id="XMLID_3858_" transform="translate(72.284 73.769)">
    <g id="XMLID_3859_">
      <path id="XMLID_3871_" d="M261.99,248.636s-2.136,4.929-6.572,3.45c-4.929-1.479-4.107-7.558-4.107-7.558h-.164s.329,6.079-4.765,7.065c-4.436.986-6.079-4.107-6.079-4.107s-.657-11.172,11.336-10.679S261.99,248.636,261.99,248.636Z" transform="translate(-240.296 -236.79)" fill="#fff"/>
    </g>
  </g>
  <g id="XMLID_3855_" transform="translate(72.784 75.592)">
    <g id="XMLID_3856_">
      <path id="XMLID_3857_" d="M261.137,249.072c-.986,1.314-2.793,3.286-5.915,2.464-4.929-1.479-4.107-7.558-4.107-7.558h-.164s.329,6.079-4.765,7.065c-3.122.657-4.765-1.479-5.586-2.957a5.485,5.485,0,0,0,2.793-.164c8.379-1.807,7.886-10.022,7.886-10.022h.329s-1.479,8.051,6.736,10.679A9.112,9.112,0,0,0,261.137,249.072Z" transform="translate(-240.6 -237.9)" fill="#e8e8e8"/>
    </g>
  </g>
  <g id="XMLID_3852_" transform="translate(71.754 80.849)">
    <g id="XMLID_3853_">
      <path id="XMLID_3854_" d="M241.167,244.55c.164.329.329.493.493.821a2.885,2.885,0,0,0,.657.822,4.429,4.429,0,0,0,1.314,1.15,2.65,2.65,0,0,0,1.479.493h1.314l.493-.164a4.207,4.207,0,0,0,2.629-2.136,19.272,19.272,0,0,0,.821-1.807,2.084,2.084,0,0,0,.164-.986c0-.329.164-.657.164-.986h0c0-.493.329-.657.822-.657a.707.707,0,0,1,.657.657v1.15a2.8,2.8,0,0,1-.164,1.15,9.419,9.419,0,0,1-.657,2.3,6.27,6.27,0,0,1-3.779,3.286l-.657.164a.988.988,0,0,0-.657.164h-1.314a5.564,5.564,0,0,1-2.464-.986,5.684,5.684,0,0,1-1.643-1.807,8.011,8.011,0,0,1-.493-1.15,2.374,2.374,0,0,1-.329-1.15c-.164-.329.164-.821.493-.986.164.164.493.329.657.657Z" transform="translate(-239.973 -241.1)" fill="#575756"/>
    </g>
  </g>
  <g id="XMLID_3849_" transform="translate(82.313 81.134)">
    <g id="XMLID_3850_">
      <path id="XMLID_3851_" d="M258.722,246.082a8.009,8.009,0,0,1-.493,1.15c-.164.329-.493.657-.657.986a4.83,4.83,0,0,1-1.972,1.643,7.038,7.038,0,0,1-2.629.822,3.2,3.2,0,0,1-1.314-.164c-.164,0-.493-.164-.657-.164l-.657-.164a6.206,6.206,0,0,1-3.45-3.615,6.592,6.592,0,0,1-.493-2.464v-1.15a2.8,2.8,0,0,1,.164-1.15c.164-.329.493-.657.822-.493a.707.707,0,0,1,.657.657h0v.986a2.084,2.084,0,0,0,.164.986c.164.657.329,1.314.493,1.807a3.807,3.807,0,0,0,2.464,2.3l.493.164a.6.6,0,0,1,.493.164c.329.164.493,0,.821.164a7.23,7.23,0,0,0,1.643-.329,7.714,7.714,0,0,0,1.479-.986l.657-.657a3.584,3.584,0,0,0,.657-.822h0a.619.619,0,0,1,.986-.164C258.722,245.425,258.722,245.753,258.722,246.082Z" transform="translate(-246.4 -241.273)" fill="#575756"/>
    </g>
  </g>
  <g id="XMLID_3843_" transform="translate(76.727 75.136)">
    <g id="XMLID_3844_">
      <g id="XMLID_3845_">
        <path id="XMLID_3847_" d="M255.815,241.2c0,1.479-1.972,2.629-3.779,3.286a6.123,6.123,0,0,1-5.586-.329c-1.643-.986-3.45-2.3-3.45-3.779C243.329,236.271,255.979,236.928,255.815,241.2Z" transform="translate(-243 -237.623)" fill="#575756"/>
      </g>
    </g>
  </g>
  <g id="XMLID_3838_" transform="translate(80.67 76.63)" opacity="0.5">
    <g id="XMLID_3839_">
      <g id="XMLID_3840_">
        <path id="XMLID_3842_" d="M250.329,239.63c0,.329-.821.657-1.479.986a3.2,3.2,0,0,1-2.136-.164c-.657-.329-1.314-.657-1.314-1.15C245.4,238.151,250.493,238.315,250.329,239.63Z" transform="translate(-245.4 -238.532)" fill="#575756"/>
      </g>
    </g>
  </g>
  <g id="XMLID_3835_" transform="translate(47.061 62.021)">
    <g id="XMLID_3836_">
      <ellipse id="XMLID_3837_" cx="10.186" cy="9.694" rx="10.186" ry="9.694" transform="translate(0 20.35) rotate(-87.296)" fill="#3a3a3a"/>
    </g>
  </g>
  <g id="XMLID_3832_" transform="translate(54.103 70.626)">
    <g id="XMLID_3833_">
      <ellipse id="XMLID_3834_" cx="4.272" cy="4.107" rx="4.272" ry="4.107" transform="matrix(0.047, -0.999, 0.999, 0.047, 0, 8.534)" fill="#fff"/>
    </g>
  </g>
  <g id="XMLID_3829_" transform="translate(51.914 65.711)">
    <g id="XMLID_3830_">
      <circle id="XMLID_3831_" cx="2.464" cy="2.464" r="2.464" transform="matrix(0.047, -0.999, 0.999, 0.047, 0, 4.923)" fill="#fff"/>
    </g>
  </g>
  <g id="XMLID_3826_" transform="translate(99.949 64.529)">
    <g id="XMLID_3827_">
      <ellipse id="XMLID_3828_" cx="10.186" cy="9.694" rx="10.186" ry="9.694" transform="matrix(0.047, -0.999, 0.999, 0.047, 0, 20.35)" fill="#3a3a3a"/>
    </g>
  </g>
  <g id="XMLID_3823_" transform="translate(106.824 73.123)">
    <g id="XMLID_3824_">
      <ellipse id="XMLID_3825_" cx="4.272" cy="4.107" rx="4.272" ry="4.107" transform="translate(0 8.534) rotate(-87.296)" fill="#fff"/>
    </g>
  </g>
  <g id="XMLID_3820_" transform="translate(104.637 68.21)">
    <g id="XMLID_3821_">
      <circle id="XMLID_3822_" cx="2.464" cy="2.464" r="2.464" transform="translate(0 4.923) rotate(-87.295)" fill="#fff"/>
    </g>
  </g>
  <g id="XMLID_3813_" transform="translate(0 71.32)">
    <g id="XMLID_3814_">
      <path id="XMLID_3815_" d="M225.709,243.515a3.592,3.592,0,0,0-.822-.493c-.329-.164-.493-.329-.821-.493s-.493-.329-.822-.493-.493-.329-.821-.329l-3.45-1.479a50.211,50.211,0,0,0-7.065-2.136c-.657-.164-1.15-.164-1.807-.329l-.986-.164a2.084,2.084,0,0,1-.986-.164c-.657,0-1.15-.164-1.807-.164l-1.807-.164a29,29,0,0,0-3.779,0h-1.972l-1.807.164h0a.707.707,0,0,1-.657-.657c0-.329.164-.657.493-.657l1.972-.329.986-.164h.986a8,8,0,0,0,1.972-.164h3.943l1.972.164a2.084,2.084,0,0,1,.986.164l.986.164c.657.164,1.314.164,1.972.329l1.972.493c.657.164,1.314.329,1.807.493a8.008,8.008,0,0,1,1.807.657c.657.164,1.15.493,1.807.657a27.836,27.836,0,0,1,6.736,3.943c.329.164.329.657.164.986a1.037,1.037,0,0,1-1.15.164Z" transform="translate(-196.3 -235.3)" fill="#575756"/>
    </g>
  </g>
  <g id="XMLID_3809_" transform="translate(4.821 86.864)">
    <g id="XMLID_3810_">
      <path id="XMLID_3812_" d="M224.973,247.125a20.224,20.224,0,0,0-3.286-.329,22.018,22.018,0,0,0-3.286-.164,41.876,41.876,0,0,0-6.408.329,17.45,17.45,0,0,0-3.122.657l-1.479.493-1.479.493a23.223,23.223,0,0,0-5.586,3.122h0a.774.774,0,0,1-.986-.164c-.164-.329-.164-.657.164-.822a23.244,23.244,0,0,1,5.75-3.779,19.328,19.328,0,0,1,3.286-1.15,25.509,25.509,0,0,1,3.45-.657,32.4,32.4,0,0,1,6.9-.329,30.408,30.408,0,0,1,6.736,1.15.9.9,0,0,1,.493.821,2.375,2.375,0,0,1-1.15.329Z" transform="translate(-199.234 -244.761)" fill="#575756"/>
    </g>
  </g>
  <g id="XMLID_3806_" transform="translate(136.479 78.549)">
    <g id="XMLID_3807_">
      <path id="XMLID_3808_" d="M279.584,244.629a27.69,27.69,0,0,1,7.065-3.286c.657-.164,1.314-.329,1.807-.493l1.972-.493c.657-.164,1.314-.164,1.972-.329l1.972-.164a8,8,0,0,1,1.972-.164h3.943l1.972.164h.986c.329,0,.657.164.986.164.657.164,1.314.164,1.972.329h.493l.493.164.986.164,1.807.493c.329.164.657.493.493.821,0,.329-.329.493-.821.493h0l-1.807-.329-.986-.164h-.986a29.329,29.329,0,0,0-3.779-.329h-5.586a6.161,6.161,0,0,0-1.807.164,51.2,51.2,0,0,0-7.229,1.479,28.308,28.308,0,0,0-3.45,1.15c-.329.164-.493.164-.821.329s-.657.164-.822.329c-.329.164-.493.164-.821.329s-.493.329-.821.329h0a.6.6,0,0,1-.821-.329C279.256,245.122,279.256,244.793,279.584,244.629Z" transform="translate(-279.369 -239.7)" fill="#575756"/>
    </g>
  </g>
  <g id="XMLID_3803_" transform="translate(134.659 92.186)">
    <g id="XMLID_3804_">
      <path id="XMLID_3805_" d="M278.654,248.657a32.733,32.733,0,0,1,6.9-.657,23.045,23.045,0,0,1,6.736.986c1.15.329,2.3.657,3.286.986a18.215,18.215,0,0,1,3.122,1.479,27,27,0,0,1,5.422,4.272c.329.329.164.657,0,.986a.733.733,0,0,1-.821,0h0a27.264,27.264,0,0,0-5.258-3.615,5.837,5.837,0,0,0-1.479-.657c-.493-.164-.986-.493-1.479-.657-.986-.329-1.972-.657-3.122-.986a43.193,43.193,0,0,0-6.408-.986c-1.15,0-2.136-.164-3.286-.164a22.018,22.018,0,0,0-3.286.164h0a.707.707,0,0,1-.657-.657C278.161,248.986,278.325,248.657,278.654,248.657Z" transform="translate(-278.261 -248)" fill="#575756"/>
    </g>
  </g>
  <g id="XMLID_3355_" transform="translate(73.277 55.694)">
    <g id="XMLID_3382_">
      <path id="XMLID_3394_" d="M242.05,245.194a1.394,1.394,0,0,1-1.15-1.314l.329-8.543a9.356,9.356,0,0,1,3.122-6.9,9.508,9.508,0,0,1,7.065-2.629,10.03,10.03,0,0,1,9.694,10.186l-.329,8.543a1.314,1.314,0,1,1-2.629,0l.329-8.543a7.439,7.439,0,0,0-7.065-7.558,7.75,7.75,0,0,0-5.257,1.972,6.737,6.737,0,0,0-2.3,5.093l-.329,8.543a1.413,1.413,0,0,1-1.314,1.314C242.214,245.194,242.214,245.194,242.05,245.194Z" transform="translate(-240.9 -225.789)" fill="#634e42"/>
    </g>
  </g>
  <g id="XMLID_3347_" transform="translate(30.066 48.976)">
    <g id="XMLID_3352_">
      <path id="XMLID_3354_" d="M252.06,227.779,223.143,263.6a23.515,23.515,0,0,1-8.543-11.336L239.08,221.7A25.136,25.136,0,0,1,252.06,227.779Z" transform="translate(-214.6 -221.7)" fill="#fff"/>
    </g>
  </g>
  <g id="XMLID_3336_" transform="translate(41.567 57.848)">
    <g id="XMLID_3337_">
      <path id="XMLID_3338_" d="M253.145,232.522l-25.466,31.545A20.269,20.269,0,0,1,221.6,262.1l28.259-35A16.541,16.541,0,0,1,253.145,232.522Z" transform="translate(-221.6 -227.1)" fill="#fff"/>
    </g>
  </g>
  <g id="XMLID_3331_" transform="translate(27.594 47.818)">
    <g id="XMLID_3332_">
      <path id="XMLID_3333_" d="M232.819,269.306a24.922,24.922,0,0,1-13.144-7.229A24.41,24.41,0,1,1,261.9,246.14h0A24.518,24.518,0,0,1,236.762,269.8Q234.544,269.553,232.819,269.306Zm8.708-45.346a24.51,24.51,0,0,0-3.45-.329,21.678,21.678,0,0,0-22.344,21.03,21.894,21.894,0,0,0,21.03,22.509,21.678,21.678,0,0,0,22.344-21.03h0A21.868,21.868,0,0,0,241.527,223.96Z" transform="translate(-213.095 -220.995)" fill="#634e42"/>
    </g>
  </g>
  <g id="XMLID_2803_" transform="translate(92.992 50.947)">
    <g id="XMLID_2804_">
      <path id="XMLID_3330_" d="M290.36,228.979,261.443,264.8a23.515,23.515,0,0,1-8.543-11.336L277.38,222.9A25.136,25.136,0,0,1,290.36,228.979Z" transform="translate(-252.9 -222.9)" fill="#fff"/>
    </g>
  </g>
  <g id="XMLID_2800_" transform="translate(104.493 59.655)">
    <g id="XMLID_2801_">
      <path id="XMLID_2802_" d="M291.445,233.622l-25.466,31.545A20.271,20.271,0,0,1,259.9,263.2l28.259-35A18.431,18.431,0,0,1,291.445,233.622Z" transform="translate(-259.9 -228.2)" fill="#fff"/>
    </g>
  </g>
  <g id="XMLID_2795_" transform="translate(90.508 49.626)">
    <g id="XMLID_2796_">
      <path id="XMLID_2797_" d="M271.123,270.406a24.341,24.341,0,1,1,21.359-6.079,24.563,24.563,0,0,1-17.415,6.572A14.376,14.376,0,0,1,271.123,270.406Zm8.708-45.182a24.51,24.51,0,0,0-3.45-.329,21.726,21.726,0,0,0-4.765,43.046,24.509,24.509,0,0,0,3.45.329,22.094,22.094,0,0,0,15.608-5.915,21.351,21.351,0,0,0,6.9-15.115A21.983,21.983,0,0,0,279.831,225.225Z" transform="translate(-251.388 -222.095)" fill="#634e42"/>
    </g>
  </g>
</svg>
