<svg xmlns="http://www.w3.org/2000/svg" width="193" height="77" viewBox="0 0 193 77">
  <g id="Group_1994" data-name="Group 1994" transform="translate(-99 -392)">
    <path id="Union_8" data-name="Union 8" d="M24.384,59.444A30.038,30.038,0,1,1,59.152,21.3a17.917,17.917,0,0,1,4.6-4.378,14.778,14.778,0,0,1,6.529-2.255,16.015,16.015,0,0,1,8.239,1.242,16.4,16.4,0,0,1,5.819,4.574,14.523,14.523,0,0,1,3.066,6.5,33.98,33.98,0,0,1,.284,6.264V45.56H85.451V38.032A15.668,15.668,0,0,1,75.04,45.289a15.941,15.941,0,0,1-10.088-1.383,16.428,16.428,0,0,1-5.831-5.149A30.156,30.156,0,0,1,30.213,60a30.684,30.684,0,0,1-5.833-.559Zm-7.189-46.8v34.7H30.937a17.354,17.354,0,0,0,2.086-.076,16.519,16.519,0,0,0,8.224-2.8,17.244,17.244,0,0,0,5.194-23.618,17.837,17.837,0,0,0-9.69-7.471,20.022,20.022,0,0,0-6.14-.741H17.2ZM70.218,16.9a13.274,13.274,0,0,0-9.906,19.516,14.115,14.115,0,0,0,5.526,5.416A13.336,13.336,0,0,0,85.309,27.979a13.4,13.4,0,0,0-7.446-9.928A13.233,13.233,0,0,0,72.1,16.783a15.218,15.218,0,0,0-1.884.121Zm61.614,28.664H130.9c-.03-5.9-.035-11.805-.06-17.709a13.01,13.01,0,0,1,1.551-6.392,14.113,14.113,0,0,1,5.121-5.251,13.246,13.246,0,0,1,7.267-1.749,12.88,12.88,0,0,1,6.671,2.061,14.031,14.031,0,0,1,4.86,5.41,13.115,13.115,0,0,1,1.307,5.92V45.569h-2.211V27.731a10.611,10.611,0,0,0-1.821-6.05,11.461,11.461,0,0,0-6.122-4.553,11.86,11.86,0,0,0-6.444,0,11.328,11.328,0,0,0-5.895,4.229,10.577,10.577,0,0,0-2.038,6.25c0,5.992.044,11.981.047,17.974-.437-.027-.87-.027-1.3-.027Zm38.56-1.591a16.068,16.068,0,0,1-7.6-8.29,16.16,16.16,0,0,1-.61-9.23,15.6,15.6,0,0,1,16.864-11.8,14.766,14.766,0,0,1,7.077,2.554,17.314,17.314,0,0,1,4.375,4.4A14.7,14.7,0,0,1,193,29.6c.011,5.321,0,10.641,0,15.962h-2.233V38.034a15.685,15.685,0,0,1-10.482,7.272,16.928,16.928,0,0,1-2.958.261,15.435,15.435,0,0,1-6.935-1.6Zm5.564-27.106a13.442,13.442,0,0,0-10.176,6.56,12.863,12.863,0,0,0-1.757,6.719A12.762,12.762,0,0,0,166,37.072a14.2,14.2,0,0,0,5.094,4.746,13.471,13.471,0,0,0,7.56,1.473,12.728,12.728,0,0,0,6.566-2.44,14.137,14.137,0,0,0,4.234-4.963,13.448,13.448,0,0,0,1.179-7.768A12.455,12.455,0,0,0,188.1,22.1a13.972,13.972,0,0,0-5.259-4.194A13.31,13.31,0,0,0,177.4,16.8a12.652,12.652,0,0,0-1.442.059Zm-52.425-1.222h2.251v29.9h-2.251Q123.528,30.6,123.532,15.645Zm-35.135,0h.785c.576,0,1.153,0,1.729.007q6.63,12.51,13.288,25.006l13.291-25.01H120Q112.1,30.577,104.2,45.5,96.288,30.587,88.4,15.645Z" transform="translate(98.974 391.998)" fill="#fff"/>
    <path id="Union_8-2" data-name="Union 8" d="M230.117,58.593c.111-.088.332-.254.446-.337a3.253,3.253,0,0,0,3.764,1.233,3.358,3.358,0,0,0,2.207-3.348,5.666,5.666,0,0,1-1.482,1.252,3.546,3.546,0,0,1-4.054-.64,3.591,3.591,0,0,1-1.106-2.554c-.03-1.314,0-2.63,0-3.943h.567c0,1.323-.014,2.644,0,3.965a3.021,3.021,0,1,0,6.041-.028c.019-1.311,0-2.627,0-3.938h.567c0,2.065.014,4.133,0,6.2a3.9,3.9,0,0,1-2.221,3.438,3.553,3.553,0,0,1-1.545.346,3.9,3.9,0,0,1-3.183-1.624Zm-72.952,1.1a6.753,6.753,0,0,1-1.176-1.048c.144-.135.29-.268.439-.4a3.294,3.294,0,0,0,4.368.963,3.5,3.5,0,0,0,1.626-3.111,3.865,3.865,0,0,1-2.723,1.66,3.6,3.6,0,0,1-3.745-2.435,27.923,27.923,0,0,1-.177-5.055h.551c0,1.316-.016,2.634,0,3.955a3.021,3.021,0,1,0,6.041,0c.023-1.316,0-2.634,0-3.955h.567c0,2.072.014,4.142,0,6.215a3.91,3.91,0,0,1-1.989,3.289,3.755,3.755,0,0,1-3.786-.073Zm-36.65-5.947a3.82,3.82,0,0,1,1.45-2.928,3.749,3.749,0,0,1,4.489-.159,3.93,3.93,0,0,1,1.519,4.314,3.824,3.824,0,0,1-3.561,2.793,3.9,3.9,0,0,1-3.353-1.833c.012,1.423,0,2.824,0,4.235h-.551C120.506,58.032,120.5,55.888,120.515,53.744Zm2.867-3.049a3.291,3.291,0,0,0-2.16,3.89,3.218,3.218,0,0,0,3.646,2.478,3.287,3.287,0,0,0-.576-6.52,2.794,2.794,0,0,0-.913.152Zm75.972,4.2c-.074-1.537,0-3.083-.033-4.612l.56-.024c0,1.458-.021,2.914,0,4.37a2.7,2.7,0,0,0,5.4.036c.028-1.463,0-2.926,0-4.387l.56-.017c-.014,1.463.019,2.933-.012,4.4a3.285,3.285,0,0,1-3.155,3.142h-.17a3.278,3.278,0,0,1-3.153-2.9Zm-26.785-.237c-.035-1.465,0-2.935-.014-4.406l.581.026c-.012,1.458-.03,2.914,0,4.368a2.7,2.7,0,0,0,5.39,0c.046-1.463,0-2.926.016-4.389l.548-.017c0,1.465.026,2.933,0,4.4a3.283,3.283,0,0,1-3.232,3.147h-.112a3.283,3.283,0,0,1-3.181-3.12Zm70.9,3.094a3.8,3.8,0,0,1-3.251-2.122,3.955,3.955,0,0,1,.236-3.931,3.781,3.781,0,0,1,3.48-1.7,3.92,3.92,0,0,1,3.559,4.085H240.4a3.267,3.267,0,0,0,6.275,1.107l.581.019a3.9,3.9,0,0,1-3.52,2.556,1.913,1.913,0,0,1-.27,0ZM240.4,53.51h6.505a3.334,3.334,0,0,0-3.211-2.95h-.116a3.347,3.347,0,0,0-3.178,2.957Zm-76.467.237a3.813,3.813,0,1,1,3.936,4.014h-.232a3.865,3.865,0,0,1-3.7-4.012Zm2.909-3.059a3.326,3.326,0,0,0-2.275,3.919,3.256,3.256,0,0,0,3.7,2.547,3.326,3.326,0,0,0-.544-6.6,2.811,2.811,0,0,0-.881.133Zm51.763,6.281.3-.474a3.243,3.243,0,0,0,3.1.486,1.446,1.446,0,0,0,.769-1.049,1.468,1.468,0,0,0-.374-1.253c-.95-.889-2.363-.948-3.343-1.79a1.593,1.593,0,0,1,.263-2.494,4.056,4.056,0,0,1,3.536.047c-.093.164-.186.33-.272.5a3.708,3.708,0,0,0-2.851-.128,1.017,1.017,0,0,0-.569.755,1.033,1.033,0,0,0,.29.905c1.059.8,2.556.875,3.457,1.914A2.072,2.072,0,0,1,223.329,56a2.044,2.044,0,0,1-.909,1.394,2.689,2.689,0,0,1-1.394.37,4.582,4.582,0,0,1-2.419-.8Zm-84.219.792a3.7,3.7,0,1,1,.209,0Zm-.8-7.073a3.327,3.327,0,0,0-2.268,3.921,3.256,3.256,0,0,0,3.7,2.543,3.327,3.327,0,0,0-.545-6.6,2.814,2.814,0,0,0-.89.138Zm74.931,6.4a3.925,3.925,0,0,1,.68-6.821,3.749,3.749,0,0,1,3.872.595,4.093,4.093,0,0,1,1.426,3.211h-3.143c-1.324,0-2.646,0-3.968.012a3.326,3.326,0,0,0,2.712,3.051,3.269,3.269,0,0,0,3.561-1.939h.583a3.837,3.837,0,0,1-3.655,2.568,3.412,3.412,0,0,1-2.068-.669Zm-1.1-3.578h6.505a3.33,3.33,0,0,0-3.253-2.945h-.081a3.326,3.326,0,0,0-3.171,2.952Zm-59.957,4.249a3.8,3.8,0,0,1-3.251-2.122,3.955,3.955,0,0,1,.236-3.931,3.781,3.781,0,0,1,3.48-1.7,3.944,3.944,0,0,1,3.534,4.074h-7.1a3.518,3.518,0,0,0,1.292,2.426A3.205,3.205,0,0,0,150,56.116c.367-.4.52-1.141,1.215-.948a3.875,3.875,0,0,1-3.529,2.582A.667.667,0,0,1,147.461,57.761Zm-3.1-4.251c2.172.021,4.347,0,6.519,0a3.344,3.344,0,0,0-3.19-2.95h-.144a3.37,3.37,0,0,0-3.185,2.95ZM224.4,55.35c-.079-2.122,0-4.244-.03-6.369h.551v1.288h3.738v.564h-3.738c.014,1.423-.03,2.845.016,4.268a2.241,2.241,0,0,0,2.354,2.082,2.829,2.829,0,0,0,1.38-.541c0,.18,0,.538-.012.711a2.627,2.627,0,0,1-1.417.405A2.823,2.823,0,0,1,224.4,55.35Zm-35.649.019c-.091-2.134-.012-4.268-.035-6.4h.567v1.276h3.731v.564h-3.738c0,1.423-.026,2.845.012,4.268a2.235,2.235,0,0,0,2.309,2.084,2.755,2.755,0,0,0,1.436-.557L193,57.33a2.627,2.627,0,0,1-1.417.405,2.833,2.833,0,0,1-2.839-2.366ZM129.125,57.5V48.255h.553c0,2.971.012,5.944,0,8.913q.023.384-.3.384a.913.913,0,0,1-.253-.05Zm65.127-4.429a3.336,3.336,0,0,1,1.346-2.46,3.2,3.2,0,0,1,2.713-.519c.014.14.049.417.063.56a2.8,2.8,0,0,0-2.962.918,3.664,3.664,0,0,0-.62,2.649q0,1.625,0,3.253l-.511.055c-.077-1.48-.042-2.969-.026-4.453Zm-77.777.778c-.848-1.2-1.7-2.4-2.521-3.625l.657.057c.781,1,1.45,2.079,2.2,3.106.713-1.036,1.454-2.058,2.147-3.111l.709-.036c-.829,1.214-1.68,2.416-2.521,3.621.834,1.221,1.694,2.419,2.523,3.64l-.723-.047c-.681-1.055-1.426-2.065-2.14-3.1-.748,1.022-1.415,2.108-2.2,3.1l-.655.055c.815-1.238,1.71-2.423,2.525-3.663ZM238.29,48.243h.553c0,3.068-.021,6.139.019,9.21l-.574.05q0-4.626,0-9.257Zm-99,9.248c.03-1.577-.065-3.158.051-4.742a3.421,3.421,0,0,1,1.451-2.227,3.292,3.292,0,0,1,2.578-.479c.014.2.03.405.053.612a2.719,2.719,0,0,0-2.242.29,2.825,2.825,0,0,0-1.283,1.9c-.1,1.548,0,3.1-.049,4.652Zm41.015,0c.033-1.579-.063-3.161.051-4.742a3.392,3.392,0,0,1,1.461-2.223,3.264,3.264,0,0,1,2.586-.447c0,.194,0,.391.014.586a2.723,2.723,0,0,0-2.232.3,2.83,2.83,0,0,0-1.276,1.894c-.111,1.548,0,3.1-.051,4.65Zm-72.814,0V50.268h5.6c0,.145.026.429.035.571H108.06v2.869h4.709v.564h-4.7v2.656h5.055v.564H107.5Z" transform="translate(44.504 408.757)" fill="#fff"/>
  </g>
</svg>
