<svg xmlns="http://www.w3.org/2000/svg" width="97" height="50" viewBox="0 0 97 50">
  <g id="logo_gomla_2" data-name="logo gomla 2" transform="translate(1464 -15484)">
    <path id="Path_16504" data-name="Path 16504" d="M321.3,538.821c1.811.014,3.625-.019,5.436.017a8.143,8.143,0,0,0,1.348,3.437,5.049,5.049,0,0,0,3,2.053,6.812,6.812,0,0,0,1.956.123,5.008,5.008,0,0,0,3.15-1.466,7.633,7.633,0,0,0,1.909-4.151q2.718-.027,5.439,0a14.944,14.944,0,0,1-.893,3.8,12.542,12.542,0,0,1-1.975,3.523,9.694,9.694,0,0,1-3.476,2.712,12.469,12.469,0,0,1-7.022.779,10.035,10.035,0,0,1-4.091-1.685,10.272,10.272,0,0,1-2.652-2.826A14.607,14.607,0,0,1,321.3,538.821Z" transform="translate(-1785.3 14975.684)" fill="#fff"/>
    <path id="Path_16505" data-name="Path 16505" d="M358.024,731.078a2.206,2.206,0,0,1,1.949.976,2.155,2.155,0,0,1-.095,2.521,2.317,2.317,0,0,1-3.292.32,2.153,2.153,0,0,1-.714-2.077A2.195,2.195,0,0,1,358.024,731.078Z" transform="translate(-1815.297 14798.563)" fill="#fff"/>
    <path id="Path_16506" data-name="Path 16506" d="M547.178,731.1a2.223,2.223,0,0,1,1.309.262,2.182,2.182,0,0,1,1.146,2.121,2.23,2.23,0,0,1-1.837,1.938,2.451,2.451,0,0,1-1.458-.2,2.175,2.175,0,0,1,.839-4.116Z" transform="translate(-1993.147 14798.546)" fill="#fff"/>
    <path id="Path_16507" data-name="Path 16507" d="M342.67,167.8a4.728,4.728,0,0,1,2.516-.623q0,5.752,0,11.5a11.22,11.22,0,0,1-2.509,6.87,11.13,11.13,0,0,1-13.475,3.063,11.248,11.248,0,0,1-5.326-5.406,11.281,11.281,0,0,1,3.649-13.916,11.126,11.126,0,0,1,13.391.313,5.088,5.088,0,0,1,1.757-1.8m-9.348,5.409a5.29,5.29,0,0,0,.535,10.527,5.07,5.07,0,0,0,3.08-.887,5.286,5.286,0,0,0-3.615-9.64Z" transform="translate(-1786.832 15321.472)" fill="#fff"/>
    <path id="Path_16976" data-name="Path 16976" d="M520.511,147.121c1.913-1.993,4.889-2.346,7.488-1.935a6.646,6.646,0,0,1,4.082,2.438,8.963,8.963,0,0,1,1.648,5.5c0,2.785.012,5.57-.006,8.355-1.428,0-2.856-.012-4.284.01-.029-2.405-.012-4.809-.01-7.214a6.906,6.906,0,0,0-.535-3.76,3.01,3.01,0,0,0-3.181-1.328,3.575,3.575,0,0,0-3.114,3.542c0,2.914-.01,5.826.01,8.741-1.441.04-2.885.014-4.326,0,0-2.785-.01-5.57,0-8.353a10.658,10.658,0,0,0-.2-1.989,2.565,2.565,0,0,0-1.468-1.7,3.877,3.877,0,0,0-4.126.754c-.012.012-.032.037-.044.048a4.27,4.27,0,0,0-.958,2.062,8.013,8.013,0,0,0-.08,1.407c.008,2.592,0,5.16,0,7.753-3.452-.045.017.033-4.027-.07.077-3.156.008-6.318.029-9.475a7.927,7.927,0,0,1,2.066-4.9,7.385,7.385,0,0,1,5.485-1.962A7.254,7.254,0,0,1,520.511,147.121Z" transform="translate(-1927.037 15349.686)" fill="#fff"/>
    <rect id="Rectangle_3466" data-name="Rectangle 3466" width="4.072" height="27.33" transform="translate(-1390.698 15484)" fill="#fff"/>
    <path id="Path_16977" data-name="Path 16977" d="M337.917,183.712a3.584,3.584,0,0,0,1.9.471q0-4.351,0-8.7a8.466,8.466,0,1,0-13.73,6.819,8.411,8.411,0,0,0,10.5.046,3.85,3.85,0,0,0,1.331,1.364m-7.078-4.091a4,4,0,0,1,.405-7.962,3.843,3.843,0,0,1,2.332.671,4.016,4.016,0,0,1,1.507,4.74,3.972,3.972,0,0,1-4.244,2.552Z" transform="translate(-1706.821 15326.866)" fill="#fff"/>
    <path id="Path_16972" data-name="Path 16972" d="M336.442,169.092a8.788,8.788,0,0,1,3.2,6.8,8.378,8.378,0,1,1-13.587-6.751,8.323,8.323,0,0,1,10.388-.045m-5.687,2.7a3.96,3.96,0,0,0,.4,7.881,3.8,3.8,0,0,0,2.308-.664,3.976,3.976,0,0,0,1.49-4.69A3.932,3.932,0,0,0,330.755,171.791Z" transform="translate(-1761.57 15327.067)" fill="#fff"/>
    <path id="Path_16979" data-name="Path 16979" d="M716.452,256.863c.481,0,.843-.005,1.449,0-.016,1.939-.041,3.91,0,5.849-.487,0-.973,0-1.457.006C716.444,260.768,716.464,258.815,716.452,256.863Z" transform="translate(-2098.565 15261.346)" fill="#fff"/>
    <path id="Path_16981" data-name="Path 16981" d="M716.452,256.864c.481.006.843-.008,1.449,0-.016,2.792-.041,5.63,0,8.422-.487,0-.973,0-1.457.009C716.444,262.486,716.464,259.674,716.452,256.864Z" transform="translate(-2100.889 15258.769)" fill="#fff"/>
    <path id="Path_16980" data-name="Path 16980" d="M730.088,256.641c.431,0,.865.012,1.3.02,0,.173,0,.516,0,.688a3.058,3.058,0,0,1,2.2-.8,2.42,2.42,0,0,1,2.1,2.04,37.575,37.575,0,0,1,.122,3.886c-.494-.032-.991-.032-1.483-.03-.022-1.087.012-2.175-.02-3.264a1.333,1.333,0,0,0-1.288-1.317,1.471,1.471,0,0,0-1.519,1.35c-.067,1.075,0,2.155-.014,3.232-.477,0-.953,0-1.428-.012C730.1,260.507,730.044,258.574,730.088,256.641Z" transform="translate(-2109.618 15261.675)" fill="#fff"/>
    <path id="Path_16982" data-name="Path 16982" d="M730.088,256.641c.431,0,.865.012,1.3.02,0,.173,0,.516,0,.688a3.058,3.058,0,0,1,2.2-.8,2.42,2.42,0,0,1,2.1,2.04,37.575,37.575,0,0,1,.122,3.886c-.494-.032-.991-.032-1.483-.03-.022-1.087.012-2.175-.02-3.264a1.333,1.333,0,0,0-1.288-1.317,1.471,1.471,0,0,0-1.519,1.35c-.067,1.075,0,2.155-.014,3.232-.477,0-.953,0-1.428-.012C730.1,260.507,730.044,258.574,730.088,256.641Z" transform="translate(-2121.239 15261.675)" fill="#fff"/>
    <ellipse id="Ellipse_187" data-name="Ellipse 187" cx="0.886" cy="0.892" rx="0.886" ry="0.892" transform="translate(-1382.315 15516.025)" fill="#fff"/>
    <ellipse id="Ellipse_189" data-name="Ellipse 189" cx="0.886" cy="0.892" rx="0.886" ry="0.892" transform="translate(-1400.437 15522.371)" fill="#fff"/>
    <path id="Path_16986" data-name="Path 16986" d="M7.64-27.471a3.561,3.561,0,0,1-.043.578H3.29a1.479,1.479,0,0,0,.447,1.007,1.372,1.372,0,0,0,.968.364,1.215,1.215,0,0,0,1.181-.718H7.491a2.7,2.7,0,0,1-.979,1.408,2.843,2.843,0,0,1-1.776.552,3.057,3.057,0,0,1-1.526-.38,2.667,2.667,0,0,1-1.053-1.076,3.315,3.315,0,0,1-.378-1.606,3.377,3.377,0,0,1,.372-1.617A2.607,2.607,0,0,1,3.194-30.03,3.106,3.106,0,0,1,4.737-30.4a3.081,3.081,0,0,1,1.505.364,2.554,2.554,0,0,1,1.032,1.033A3.144,3.144,0,0,1,7.64-27.471ZM6.1-27.9a1.193,1.193,0,0,0-.415-.926,1.463,1.463,0,0,0-.989-.348,1.346,1.346,0,0,0-.931.337A1.487,1.487,0,0,0,3.3-27.9Z" transform="translate(-1374.641 15548.413)" fill="#fff"/>
    <path id="Path_16972-2" data-name="Path 16972" d="M327.842,167.949a3.206,3.206,0,0,1,1.167,2.479,3.057,3.057,0,1,1-4.958-2.462,3.037,3.037,0,0,1,3.79-.016m-2.075.985a1.445,1.445,0,0,0,.146,2.875,1.387,1.387,0,0,0,.842-.242,1.451,1.451,0,0,0,.544-1.712,1.435,1.435,0,0,0-1.532-.922Z" transform="translate(-1721.174 15350.716)" fill="#fff"/>
  </g>
</svg>
